<svg xmlns="http://www.w3.org/2000/svg" width="148.31" height="130.743" viewBox="0 0 148.31 130.743">
  <g id="Group_714" data-name="Group 714" transform="translate(-411.242 -422.934)">
    <path id="Path_7392" data-name="Path 7392" d="M502.905,553.677a8.637,8.637,0,0,1-6.1-2.514l-53.517-53.3a8.632,8.632,0,1,1,12.184-12.232l48.19,47.992c15.922-13.069,24.6-28.959,24.6-45.318,0-18.229-10.776-35.875-30.342-49.687a8.633,8.633,0,0,1,9.956-14.106c24.279,17.139,37.65,39.795,37.65,63.793s-13.371,46.654-37.65,63.791a8.594,8.594,0,0,1-4.976,1.58" transform="translate(14.022 0)" fill="#231f20"/>
    <path id="Path_7393" data-name="Path 7393" d="M453.863,553.677a8.578,8.578,0,0,1-4.971-1.58c-24.279-17.137-37.65-39.792-37.65-63.791s13.371-46.654,37.65-63.793a8.636,8.636,0,0,1,11.071.937l53.52,53.3A8.633,8.633,0,0,1,501.3,490.981l-48.193-47.994c-15.922,13.069-24.6,28.958-24.6,45.318,0,18.23,10.775,35.873,30.34,49.687a8.632,8.632,0,0,1-4.986,15.684" transform="translate(0 0)" fill="#231f20"/>
  </g>
</svg>
